<svg xmlns="http://www.w3.org/2000/svg" version="1.1" xmlns:xlink="http://www.w3.org/1999/xlink" xmlns:svgjs="http://svgjs.dev/svgjs" width="1440" height="343" preserveAspectRatio="none" viewBox="0 0 1440 343"><g mask="url(&quot;#SvgjsMask2827&quot;)" fill="none"><g transform="translate(0, 0)" stroke-linecap="round" stroke="url(&quot;#SvgjsLinearGradient2828&quot;)"><path d="M292.5 137.84 L292.5 205.16" stroke-width="14.25"></path><path d="M311.5 159.88 L311.5 183.12" stroke-width="14.25"></path><path d="M330.5 108.58 L330.5 234.43" stroke-width="14.25"></path><path d="M349.5 152.06 L349.5 190.94" stroke-width="14.25"></path><path d="M368.5 157.53 L368.5 185.47" stroke-width="14.25"></path><path d="M387.5 99.57 L387.5 243.43" stroke-width="14.25"></path><path d="M406.5 111.72 L406.5 231.28" stroke-width="14.25"></path><path d="M425.5 83.89 L425.5 259.11" stroke-width="14.25"></path><path d="M444.5 132.63 L444.5 210.37" stroke-width="14.25"></path><path d="M463.5 153.75 L463.5 189.25" stroke-width="14.25"></path><path d="M482.5 153.24 L482.5 189.76" stroke-width="14.25"></path><path d="M501.5 146.78 L501.5 196.22" stroke-width="14.25"></path><path d="M520.5 152.18 L520.5 190.82" stroke-width="14.25"></path><path d="M539.5 142.28 L539.5 200.72" stroke-width="14.25"></path><path d="M558.5 120.34 L558.5 222.66" stroke-width="14.25"></path><path d="M577.5 83.11 L577.5 259.89" stroke-width="14.25"></path><path d="M596.5 128.28 L596.5 214.72" stroke-width="14.25"></path><path d="M615.5 100.83 L615.5 242.17" stroke-width="14.25"></path><path d="M634.5 101.67 L634.5 241.33" stroke-width="14.25"></path><path d="M653.5 142.18 L653.5 200.82" stroke-width="14.25"></path><path d="M672.5 95.11 L672.5 247.88" stroke-width="14.25"></path><path d="M691.5 131.62 L691.5 211.38" stroke-width="14.25"></path><path d="M710.5 134.88 L710.5 208.12" stroke-width="14.25"></path><path d="M729.5 157.69 L729.5 185.31" stroke-width="14.25"></path><path d="M748.5 81.61 L748.5 261.39" stroke-width="14.25"></path><path d="M767.5 79.18 L767.5 263.82" stroke-width="14.25"></path><path d="M786.5 127.53 L786.5 215.47" stroke-width="14.25"></path><path d="M805.5 118.84 L805.5 224.16" stroke-width="14.25"></path><path d="M824.5 131.74 L824.5 211.26" stroke-width="14.25"></path><path d="M843.5 132.94 L843.5 210.06" stroke-width="14.25"></path><path d="M862.5 106.46 L862.5 236.54" stroke-width="14.25"></path><path d="M881.5 77 L881.5 266" stroke-width="14.25"></path><path d="M900.5 146.41 L900.5 196.59" stroke-width="14.25"></path><path d="M919.5 124.37 L919.5 218.63" stroke-width="14.25"></path><path d="M938.5 101.73 L938.5 241.26" stroke-width="14.25"></path><path d="M957.5 137.7 L957.5 205.3" stroke-width="14.25"></path><path d="M976.5 103.83 L976.5 239.17" stroke-width="14.25"></path><path d="M995.5 81.47 L995.5 261.52" stroke-width="14.25"></path><path d="M1014.5 110.54 L1014.5 232.46" stroke-width="14.25"></path><path d="M1033.5 88.43 L1033.5 254.57" stroke-width="14.25"></path><path d="M1052.5 94.69 L1052.5 248.31" stroke-width="14.25"></path><path d="M1071.5 143.23 L1071.5 199.77" stroke-width="14.25"></path><path d="M1090.5 90.75 L1090.5 252.25" stroke-width="14.25"></path><path d="M1109.5 122.52 L1109.5 220.49" stroke-width="14.25"></path><path d="M1128.5 155.44 L1128.5 187.56" stroke-width="14.25"></path><path d="M1147.5 125.83 L1147.5 217.18" stroke-width="14.25"></path></g></g><defs><mask id="SvgjsMask2827"><rect width="1440" height="343" fill="#ffffff"></rect></mask><linearGradient x1="280.8" y1="171.5" x2="1159.2" y2="171.5" gradientUnits="userSpaceOnUse" id="SvgjsLinearGradient2828"><stop stop-color="#3a7cc3" offset="0"></stop><stop stop-color="rgba(251, 74, 89, 1)" offset="0.73"></stop></linearGradient></defs></svg>